<mxfile host="app.diagrams.net" agent="Mozilla/5.0 (Windows NT 10.0; Win64; x64) AppleWebKit/537.36 (KHTML, like Gecko) Chrome/131.0.0.0 Safari/537.36" version="25.0.3">
  <diagram name="Страница — 1" id="ilQCHP4AOW7aM7afZtG-">
    <mxGraphModel dx="1863" dy="383" grid="1" gridSize="10" guides="1" tooltips="1" connect="1" arrows="1" fold="1" page="1" pageScale="1" pageWidth="827" pageHeight="1169" math="0" shadow="0">
      <root>
        <mxCell id="0" />
        <mxCell id="1" parent="0" />
        <mxCell id="JSwUa3x2rkM4eSOmI39e-5" value="departments" style="swimlane;fontStyle=0;childLayout=stackLayout;horizontal=1;startSize=30;horizontalStack=0;resizeParent=1;resizeParentMax=0;resizeLast=0;collapsible=1;marginBottom=0;whiteSpace=wrap;html=1;arcSize=16;fontSize=15;" vertex="1" parent="1">
          <mxGeometry x="160" y="100" width="200" height="180" as="geometry" />
        </mxCell>
        <mxCell id="JSwUa3x2rkM4eSOmI39e-8" value="id (int) PK" style="text;strokeColor=none;fillColor=none;align=left;verticalAlign=middle;spacingLeft=4;spacingRight=4;overflow=hidden;points=[[0,0.5],[1,0.5]];portConstraint=eastwest;rotatable=0;whiteSpace=wrap;html=1;arcSize=16;fontSize=15;" vertex="1" parent="JSwUa3x2rkM4eSOmI39e-5">
          <mxGeometry y="30" width="200" height="30" as="geometry" />
        </mxCell>
        <mxCell id="JSwUa3x2rkM4eSOmI39e-9" value="name&amp;nbsp;(varchra)" style="text;strokeColor=none;fillColor=none;align=left;verticalAlign=middle;spacingLeft=4;spacingRight=4;overflow=hidden;points=[[0,0.5],[1,0.5]];portConstraint=eastwest;rotatable=0;whiteSpace=wrap;html=1;arcSize=16;fontSize=15;" vertex="1" parent="JSwUa3x2rkM4eSOmI39e-5">
          <mxGeometry y="60" width="200" height="30" as="geometry" />
        </mxCell>
        <mxCell id="JSwUa3x2rkM4eSOmI39e-10" value="parent_id (int)" style="text;strokeColor=none;fillColor=none;align=left;verticalAlign=middle;spacingLeft=4;spacingRight=4;overflow=hidden;points=[[0,0.5],[1,0.5]];portConstraint=eastwest;rotatable=0;whiteSpace=wrap;html=1;arcSize=16;fontSize=15;" vertex="1" parent="JSwUa3x2rkM4eSOmI39e-5">
          <mxGeometry y="90" width="200" height="30" as="geometry" />
        </mxCell>
        <mxCell id="JSwUa3x2rkM4eSOmI39e-11" value="comment (varchar)" style="text;strokeColor=none;fillColor=none;align=left;verticalAlign=middle;spacingLeft=4;spacingRight=4;overflow=hidden;points=[[0,0.5],[1,0.5]];portConstraint=eastwest;rotatable=0;whiteSpace=wrap;html=1;arcSize=16;fontSize=15;" vertex="1" parent="JSwUa3x2rkM4eSOmI39e-5">
          <mxGeometry y="120" width="200" height="30" as="geometry" />
        </mxCell>
        <mxCell id="JSwUa3x2rkM4eSOmI39e-12" value="&lt;div style=&quot;text-align: left;&quot;&gt;&lt;span style=&quot;text-align: center; background-color: initial;&quot;&gt;organization_id&lt;/span&gt;&lt;span style=&quot;text-align: center; background-color: initial;&quot;&gt;&amp;nbsp;(int) FK&lt;/span&gt;&lt;/div&gt;" style="text;strokeColor=none;fillColor=none;align=left;verticalAlign=middle;spacingLeft=4;spacingRight=4;overflow=hidden;points=[[0,0.5],[1,0.5]];portConstraint=eastwest;rotatable=0;whiteSpace=wrap;html=1;arcSize=16;fontSize=15;" vertex="1" parent="JSwUa3x2rkM4eSOmI39e-5">
          <mxGeometry y="150" width="200" height="30" as="geometry" />
        </mxCell>
        <mxCell id="JSwUa3x2rkM4eSOmI39e-1" value="organizations" style="swimlane;fontStyle=0;childLayout=stackLayout;horizontal=1;startSize=30;horizontalStack=0;resizeParent=1;resizeParentMax=0;resizeLast=0;collapsible=1;marginBottom=0;whiteSpace=wrap;html=1;arcSize=16;fontSize=15;" vertex="1" parent="1">
          <mxGeometry x="-30" y="100" width="140" height="120" as="geometry" />
        </mxCell>
        <mxCell id="JSwUa3x2rkM4eSOmI39e-2" value="id (int) PK" style="text;strokeColor=none;fillColor=none;align=left;verticalAlign=middle;spacingLeft=4;spacingRight=4;overflow=hidden;points=[[0,0.5],[1,0.5]];portConstraint=eastwest;rotatable=0;whiteSpace=wrap;html=1;arcSize=16;fontSize=15;" vertex="1" parent="JSwUa3x2rkM4eSOmI39e-1">
          <mxGeometry y="30" width="140" height="30" as="geometry" />
        </mxCell>
        <mxCell id="JSwUa3x2rkM4eSOmI39e-3" value="name (varchra)" style="text;strokeColor=none;fillColor=none;align=left;verticalAlign=middle;spacingLeft=4;spacingRight=4;overflow=hidden;points=[[0,0.5],[1,0.5]];portConstraint=eastwest;rotatable=0;whiteSpace=wrap;html=1;arcSize=16;fontSize=15;" vertex="1" parent="JSwUa3x2rkM4eSOmI39e-1">
          <mxGeometry y="60" width="140" height="30" as="geometry" />
        </mxCell>
        <mxCell id="JSwUa3x2rkM4eSOmI39e-4" value="comment (varchar)" style="text;strokeColor=none;fillColor=none;align=left;verticalAlign=middle;spacingLeft=4;spacingRight=4;overflow=hidden;points=[[0,0.5],[1,0.5]];portConstraint=eastwest;rotatable=0;whiteSpace=wrap;html=1;arcSize=16;fontSize=15;" vertex="1" parent="JSwUa3x2rkM4eSOmI39e-1">
          <mxGeometry y="90" width="140" height="30" as="geometry" />
        </mxCell>
        <mxCell id="JSwUa3x2rkM4eSOmI39e-13" style="edgeStyle=orthogonalEdgeStyle;rounded=0;orthogonalLoop=1;jettySize=auto;html=1;arcSize=16;fontSize=15;" edge="1" parent="1" source="JSwUa3x2rkM4eSOmI39e-2" target="JSwUa3x2rkM4eSOmI39e-12">
          <mxGeometry relative="1" as="geometry">
            <Array as="points">
              <mxPoint x="130" y="155" />
              <mxPoint x="130" y="265" />
            </Array>
          </mxGeometry>
        </mxCell>
        <mxCell id="JSwUa3x2rkM4eSOmI39e-14" value="1 к *" style="edgeLabel;html=1;align=center;verticalAlign=middle;resizable=0;points=[];arcSize=16;fontSize=15;" vertex="1" connectable="0" parent="JSwUa3x2rkM4eSOmI39e-13">
          <mxGeometry x="-0.032" y="-2" relative="1" as="geometry">
            <mxPoint as="offset" />
          </mxGeometry>
        </mxCell>
        <mxCell id="JSwUa3x2rkM4eSOmI39e-15" value="employees" style="swimlane;fontStyle=0;childLayout=stackLayout;horizontal=1;startSize=30;horizontalStack=0;resizeParent=1;resizeParentMax=0;resizeLast=0;collapsible=1;marginBottom=0;whiteSpace=wrap;html=1;arcSize=16;fontSize=15;" vertex="1" parent="1">
          <mxGeometry x="414" y="110" width="210" height="420" as="geometry" />
        </mxCell>
        <mxCell id="JSwUa3x2rkM4eSOmI39e-16" value="id (int) PK" style="text;strokeColor=none;fillColor=none;align=left;verticalAlign=middle;spacingLeft=4;spacingRight=4;overflow=hidden;points=[[0,0.5],[1,0.5]];portConstraint=eastwest;rotatable=0;whiteSpace=wrap;html=1;arcSize=16;fontSize=15;" vertex="1" parent="JSwUa3x2rkM4eSOmI39e-15">
          <mxGeometry y="30" width="210" height="30" as="geometry" />
        </mxCell>
        <mxCell id="JSwUa3x2rkM4eSOmI39e-17" value="last_name (varchar)" style="text;strokeColor=none;fillColor=none;align=left;verticalAlign=middle;spacingLeft=4;spacingRight=4;overflow=hidden;points=[[0,0.5],[1,0.5]];portConstraint=eastwest;rotatable=0;whiteSpace=wrap;html=1;arcSize=16;fontSize=15;" vertex="1" parent="JSwUa3x2rkM4eSOmI39e-15">
          <mxGeometry y="60" width="210" height="30" as="geometry" />
        </mxCell>
        <mxCell id="JSwUa3x2rkM4eSOmI39e-18" value="first_name (varchar)" style="text;strokeColor=none;fillColor=none;align=left;verticalAlign=middle;spacingLeft=4;spacingRight=4;overflow=hidden;points=[[0,0.5],[1,0.5]];portConstraint=eastwest;rotatable=0;whiteSpace=wrap;html=1;arcSize=16;fontSize=15;" vertex="1" parent="JSwUa3x2rkM4eSOmI39e-15">
          <mxGeometry y="90" width="210" height="30" as="geometry" />
        </mxCell>
        <mxCell id="JSwUa3x2rkM4eSOmI39e-19" value="middle_name (varchar)" style="text;strokeColor=none;fillColor=none;align=left;verticalAlign=middle;spacingLeft=4;spacingRight=4;overflow=hidden;points=[[0,0.5],[1,0.5]];portConstraint=eastwest;rotatable=0;whiteSpace=wrap;html=1;arcSize=16;fontSize=15;" vertex="1" parent="JSwUa3x2rkM4eSOmI39e-15">
          <mxGeometry y="120" width="210" height="30" as="geometry" />
        </mxCell>
        <mxCell id="JSwUa3x2rkM4eSOmI39e-20" value="date_of_birth (date)" style="text;strokeColor=none;fillColor=none;align=left;verticalAlign=middle;spacingLeft=4;spacingRight=4;overflow=hidden;points=[[0,0.5],[1,0.5]];portConstraint=eastwest;rotatable=0;whiteSpace=wrap;html=1;arcSize=16;fontSize=15;" vertex="1" parent="JSwUa3x2rkM4eSOmI39e-15">
          <mxGeometry y="150" width="210" height="30" as="geometry" />
        </mxCell>
        <mxCell id="JSwUa3x2rkM4eSOmI39e-21" value="passport_series (varchar)" style="text;strokeColor=none;fillColor=none;align=left;verticalAlign=middle;spacingLeft=4;spacingRight=4;overflow=hidden;points=[[0,0.5],[1,0.5]];portConstraint=eastwest;rotatable=0;whiteSpace=wrap;html=1;arcSize=16;fontSize=15;" vertex="1" parent="JSwUa3x2rkM4eSOmI39e-15">
          <mxGeometry y="180" width="210" height="30" as="geometry" />
        </mxCell>
        <mxCell id="JSwUa3x2rkM4eSOmI39e-22" value="passport_number (varchar)" style="text;strokeColor=none;fillColor=none;align=left;verticalAlign=middle;spacingLeft=4;spacingRight=4;overflow=hidden;points=[[0,0.5],[1,0.5]];portConstraint=eastwest;rotatable=0;whiteSpace=wrap;html=1;arcSize=16;fontSize=15;" vertex="1" parent="JSwUa3x2rkM4eSOmI39e-15">
          <mxGeometry y="210" width="210" height="30" as="geometry" />
        </mxCell>
        <mxCell id="JSwUa3x2rkM4eSOmI39e-23" value="region_id (int)" style="text;strokeColor=none;fillColor=none;align=left;verticalAlign=middle;spacingLeft=4;spacingRight=4;overflow=hidden;points=[[0,0.5],[1,0.5]];portConstraint=eastwest;rotatable=0;whiteSpace=wrap;html=1;arcSize=16;fontSize=15;" vertex="1" parent="JSwUa3x2rkM4eSOmI39e-15">
          <mxGeometry y="240" width="210" height="30" as="geometry" />
        </mxCell>
        <mxCell id="JSwUa3x2rkM4eSOmI39e-24" value="city_id (int)" style="text;strokeColor=none;fillColor=none;align=left;verticalAlign=middle;spacingLeft=4;spacingRight=4;overflow=hidden;points=[[0,0.5],[1,0.5]];portConstraint=eastwest;rotatable=0;whiteSpace=wrap;html=1;arcSize=16;fontSize=15;" vertex="1" parent="JSwUa3x2rkM4eSOmI39e-15">
          <mxGeometry y="270" width="210" height="30" as="geometry" />
        </mxCell>
        <mxCell id="JSwUa3x2rkM4eSOmI39e-25" value="street (varchar)" style="text;strokeColor=none;fillColor=none;align=left;verticalAlign=middle;spacingLeft=4;spacingRight=4;overflow=hidden;points=[[0,0.5],[1,0.5]];portConstraint=eastwest;rotatable=0;whiteSpace=wrap;html=1;arcSize=16;fontSize=15;" vertex="1" parent="JSwUa3x2rkM4eSOmI39e-15">
          <mxGeometry y="300" width="210" height="30" as="geometry" />
        </mxCell>
        <mxCell id="JSwUa3x2rkM4eSOmI39e-26" value="house (varchar)" style="text;strokeColor=none;fillColor=none;align=left;verticalAlign=middle;spacingLeft=4;spacingRight=4;overflow=hidden;points=[[0,0.5],[1,0.5]];portConstraint=eastwest;rotatable=0;whiteSpace=wrap;html=1;arcSize=16;fontSize=15;" vertex="1" parent="JSwUa3x2rkM4eSOmI39e-15">
          <mxGeometry y="330" width="210" height="30" as="geometry" />
        </mxCell>
        <mxCell id="JSwUa3x2rkM4eSOmI39e-27" value="building (varchar)" style="text;strokeColor=none;fillColor=none;align=left;verticalAlign=middle;spacingLeft=4;spacingRight=4;overflow=hidden;points=[[0,0.5],[1,0.5]];portConstraint=eastwest;rotatable=0;whiteSpace=wrap;html=1;arcSize=16;fontSize=15;" vertex="1" parent="JSwUa3x2rkM4eSOmI39e-15">
          <mxGeometry y="360" width="210" height="30" as="geometry" />
        </mxCell>
        <mxCell id="JSwUa3x2rkM4eSOmI39e-28" value="apartment (int)" style="text;strokeColor=none;fillColor=none;align=left;verticalAlign=middle;spacingLeft=4;spacingRight=4;overflow=hidden;points=[[0,0.5],[1,0.5]];portConstraint=eastwest;rotatable=0;whiteSpace=wrap;html=1;arcSize=16;fontSize=15;" vertex="1" parent="JSwUa3x2rkM4eSOmI39e-15">
          <mxGeometry y="390" width="210" height="30" as="geometry" />
        </mxCell>
        <mxCell id="JSwUa3x2rkM4eSOmI39e-29" value="positions" style="swimlane;fontStyle=0;childLayout=stackLayout;horizontal=1;startSize=30;horizontalStack=0;resizeParent=1;resizeParentMax=0;resizeLast=0;collapsible=1;marginBottom=0;whiteSpace=wrap;html=1;arcSize=16;fontSize=15;" vertex="1" parent="1">
          <mxGeometry x="200" y="305" width="140" height="120" as="geometry" />
        </mxCell>
        <mxCell id="JSwUa3x2rkM4eSOmI39e-30" value="id (int) PK" style="text;strokeColor=none;fillColor=none;align=left;verticalAlign=middle;spacingLeft=4;spacingRight=4;overflow=hidden;points=[[0,0.5],[1,0.5]];portConstraint=eastwest;rotatable=0;whiteSpace=wrap;html=1;arcSize=16;fontSize=15;" vertex="1" parent="JSwUa3x2rkM4eSOmI39e-29">
          <mxGeometry y="30" width="140" height="30" as="geometry" />
        </mxCell>
        <mxCell id="JSwUa3x2rkM4eSOmI39e-31" value="name (varchar)" style="text;strokeColor=none;fillColor=none;align=left;verticalAlign=middle;spacingLeft=4;spacingRight=4;overflow=hidden;points=[[0,0.5],[1,0.5]];portConstraint=eastwest;rotatable=0;whiteSpace=wrap;html=1;arcSize=16;fontSize=15;" vertex="1" parent="JSwUa3x2rkM4eSOmI39e-29">
          <mxGeometry y="60" width="140" height="30" as="geometry" />
        </mxCell>
        <mxCell id="JSwUa3x2rkM4eSOmI39e-32" value="&lt;div style=&quot;text-align: left;&quot;&gt;&lt;span style=&quot;text-align: center; background-color: initial;&quot;&gt;department_id&lt;/span&gt;&lt;span style=&quot;text-align: center; background-color: initial;&quot;&gt;&amp;nbsp;(int)&lt;/span&gt;&lt;/div&gt;" style="text;strokeColor=none;fillColor=none;align=left;verticalAlign=middle;spacingLeft=4;spacingRight=4;overflow=hidden;points=[[0,0.5],[1,0.5]];portConstraint=eastwest;rotatable=0;whiteSpace=wrap;html=1;arcSize=16;fontSize=15;" vertex="1" parent="JSwUa3x2rkM4eSOmI39e-29">
          <mxGeometry y="90" width="140" height="30" as="geometry" />
        </mxCell>
        <mxCell id="JSwUa3x2rkM4eSOmI39e-33" style="edgeStyle=orthogonalEdgeStyle;rounded=0;orthogonalLoop=1;jettySize=auto;html=1;arcSize=16;fontSize=15;" edge="1" parent="1" source="JSwUa3x2rkM4eSOmI39e-35" target="JSwUa3x2rkM4eSOmI39e-23">
          <mxGeometry relative="1" as="geometry" />
        </mxCell>
        <mxCell id="JSwUa3x2rkM4eSOmI39e-34" value="* к 1" style="edgeLabel;html=1;align=center;verticalAlign=middle;resizable=0;points=[];arcSize=16;fontSize=15;" vertex="1" connectable="0" parent="JSwUa3x2rkM4eSOmI39e-33">
          <mxGeometry x="-0.4318" y="-2" relative="1" as="geometry">
            <mxPoint y="12" as="offset" />
          </mxGeometry>
        </mxCell>
        <mxCell id="JSwUa3x2rkM4eSOmI39e-35" value="regions" style="swimlane;fontStyle=0;childLayout=stackLayout;horizontal=1;startSize=30;horizontalStack=0;resizeParent=1;resizeParentMax=0;resizeLast=0;collapsible=1;marginBottom=0;whiteSpace=wrap;html=1;arcSize=16;fontSize=15;" vertex="1" parent="1">
          <mxGeometry x="685" y="280" width="140" height="90" as="geometry" />
        </mxCell>
        <mxCell id="JSwUa3x2rkM4eSOmI39e-36" value="id (int) PK" style="text;strokeColor=none;fillColor=none;align=left;verticalAlign=middle;spacingLeft=4;spacingRight=4;overflow=hidden;points=[[0,0.5],[1,0.5]];portConstraint=eastwest;rotatable=0;whiteSpace=wrap;html=1;arcSize=16;fontSize=15;" vertex="1" parent="JSwUa3x2rkM4eSOmI39e-35">
          <mxGeometry y="30" width="140" height="30" as="geometry" />
        </mxCell>
        <mxCell id="JSwUa3x2rkM4eSOmI39e-37" value="name (varchar)" style="text;strokeColor=none;fillColor=none;align=left;verticalAlign=middle;spacingLeft=4;spacingRight=4;overflow=hidden;points=[[0,0.5],[1,0.5]];portConstraint=eastwest;rotatable=0;whiteSpace=wrap;html=1;arcSize=16;fontSize=15;" vertex="1" parent="JSwUa3x2rkM4eSOmI39e-35">
          <mxGeometry y="60" width="140" height="30" as="geometry" />
        </mxCell>
        <mxCell id="JSwUa3x2rkM4eSOmI39e-38" value="passport_scan" style="swimlane;fontStyle=0;childLayout=stackLayout;horizontal=1;startSize=30;horizontalStack=0;resizeParent=1;resizeParentMax=0;resizeLast=0;collapsible=1;marginBottom=0;whiteSpace=wrap;html=1;arcSize=16;fontSize=15;" vertex="1" parent="1">
          <mxGeometry x="680" y="110" width="150" height="150" as="geometry" />
        </mxCell>
        <mxCell id="JSwUa3x2rkM4eSOmI39e-39" value="id (int) PK" style="text;strokeColor=none;fillColor=none;align=left;verticalAlign=middle;spacingLeft=4;spacingRight=4;overflow=hidden;points=[[0,0.5],[1,0.5]];portConstraint=eastwest;rotatable=0;whiteSpace=wrap;html=1;arcSize=16;fontSize=15;" vertex="1" parent="JSwUa3x2rkM4eSOmI39e-38">
          <mxGeometry y="30" width="150" height="30" as="geometry" />
        </mxCell>
        <mxCell id="JSwUa3x2rkM4eSOmI39e-40" value="name (varchar)" style="text;strokeColor=none;fillColor=none;align=left;verticalAlign=middle;spacingLeft=4;spacingRight=4;overflow=hidden;points=[[0,0.5],[1,0.5]];portConstraint=eastwest;rotatable=0;whiteSpace=wrap;html=1;arcSize=16;fontSize=15;" vertex="1" parent="JSwUa3x2rkM4eSOmI39e-38">
          <mxGeometry y="60" width="150" height="30" as="geometry" />
        </mxCell>
        <mxCell id="JSwUa3x2rkM4eSOmI39e-41" value="path (varchar&lt;span style=&quot;background-color: initial;&quot;&gt;)&lt;/span&gt;" style="text;strokeColor=none;fillColor=none;align=left;verticalAlign=middle;spacingLeft=4;spacingRight=4;overflow=hidden;points=[[0,0.5],[1,0.5]];portConstraint=eastwest;rotatable=0;whiteSpace=wrap;html=1;arcSize=16;fontSize=15;" vertex="1" parent="JSwUa3x2rkM4eSOmI39e-38">
          <mxGeometry y="90" width="150" height="30" as="geometry" />
        </mxCell>
        <mxCell id="JSwUa3x2rkM4eSOmI39e-42" value="employee_id (int) FK" style="text;strokeColor=none;fillColor=none;align=left;verticalAlign=middle;spacingLeft=4;spacingRight=4;overflow=hidden;points=[[0,0.5],[1,0.5]];portConstraint=eastwest;rotatable=0;whiteSpace=wrap;html=1;arcSize=16;fontSize=15;" vertex="1" parent="JSwUa3x2rkM4eSOmI39e-38">
          <mxGeometry y="120" width="150" height="30" as="geometry" />
        </mxCell>
        <mxCell id="JSwUa3x2rkM4eSOmI39e-43" value="employee_details" style="swimlane;fontStyle=0;childLayout=stackLayout;horizontal=1;startSize=30;horizontalStack=0;resizeParent=1;resizeParentMax=0;resizeLast=0;collapsible=1;marginBottom=0;whiteSpace=wrap;html=1;arcSize=16;fontSize=15;" vertex="1" parent="1">
          <mxGeometry x="190" y="450" width="180" height="150" as="geometry" />
        </mxCell>
        <mxCell id="JSwUa3x2rkM4eSOmI39e-44" value="id (int) PK" style="text;strokeColor=none;fillColor=none;align=left;verticalAlign=middle;spacingLeft=4;spacingRight=4;overflow=hidden;points=[[0,0.5],[1,0.5]];portConstraint=eastwest;rotatable=0;whiteSpace=wrap;html=1;arcSize=16;fontSize=15;" vertex="1" parent="JSwUa3x2rkM4eSOmI39e-43">
          <mxGeometry y="30" width="180" height="30" as="geometry" />
        </mxCell>
        <mxCell id="JSwUa3x2rkM4eSOmI39e-45" value="&lt;div style=&quot;text-align: left;&quot;&gt;&lt;span style=&quot;text-align: center; background-color: initial;&quot;&gt;department_id&lt;/span&gt;&lt;span style=&quot;text-align: center; background-color: initial;&quot;&gt;&amp;nbsp;(int)&lt;/span&gt;&lt;/div&gt;" style="text;strokeColor=none;fillColor=none;align=left;verticalAlign=middle;spacingLeft=4;spacingRight=4;overflow=hidden;points=[[0,0.5],[1,0.5]];portConstraint=eastwest;rotatable=0;whiteSpace=wrap;html=1;arcSize=16;fontSize=15;" vertex="1" parent="JSwUa3x2rkM4eSOmI39e-43">
          <mxGeometry y="60" width="180" height="30" as="geometry" />
        </mxCell>
        <mxCell id="JSwUa3x2rkM4eSOmI39e-46" value="&lt;div style=&quot;text-align: left;&quot;&gt;&lt;span style=&quot;text-align: center; background-color: initial;&quot;&gt;position_id&amp;nbsp;&lt;/span&gt;&lt;span style=&quot;text-align: center; background-color: initial;&quot;&gt;(int)&lt;/span&gt;&lt;/div&gt;" style="text;strokeColor=none;fillColor=none;align=left;verticalAlign=middle;spacingLeft=4;spacingRight=4;overflow=hidden;points=[[0,0.5],[1,0.5]];portConstraint=eastwest;rotatable=0;whiteSpace=wrap;html=1;arcSize=16;fontSize=15;" vertex="1" parent="JSwUa3x2rkM4eSOmI39e-43">
          <mxGeometry y="90" width="180" height="30" as="geometry" />
        </mxCell>
        <mxCell id="JSwUa3x2rkM4eSOmI39e-47" value="salary (int)" style="text;strokeColor=none;fillColor=none;align=left;verticalAlign=middle;spacingLeft=4;spacingRight=4;overflow=hidden;points=[[0,0.5],[1,0.5]];portConstraint=eastwest;rotatable=0;whiteSpace=wrap;html=1;arcSize=16;fontSize=15;" vertex="1" parent="JSwUa3x2rkM4eSOmI39e-43">
          <mxGeometry y="120" width="180" height="30" as="geometry" />
        </mxCell>
        <mxCell id="JSwUa3x2rkM4eSOmI39e-48" value="history_change" style="swimlane;fontStyle=0;childLayout=stackLayout;horizontal=1;startSize=30;horizontalStack=0;resizeParent=1;resizeParentMax=0;resizeLast=0;collapsible=1;marginBottom=0;whiteSpace=wrap;html=1;arcSize=16;fontSize=15;" vertex="1" parent="1">
          <mxGeometry x="1070" y="110" width="230" height="240" as="geometry" />
        </mxCell>
        <mxCell id="JSwUa3x2rkM4eSOmI39e-49" value="id (int) PK" style="text;strokeColor=none;fillColor=none;align=left;verticalAlign=middle;spacingLeft=4;spacingRight=4;overflow=hidden;points=[[0,0.5],[1,0.5]];portConstraint=eastwest;rotatable=0;whiteSpace=wrap;html=1;arcSize=16;fontSize=15;" vertex="1" parent="JSwUa3x2rkM4eSOmI39e-48">
          <mxGeometry y="30" width="230" height="30" as="geometry" />
        </mxCell>
        <mxCell id="JSwUa3x2rkM4eSOmI39e-50" value="datetime_operations (datetime)" style="text;strokeColor=none;fillColor=none;align=left;verticalAlign=middle;spacingLeft=4;spacingRight=4;overflow=hidden;points=[[0,0.5],[1,0.5]];portConstraint=eastwest;rotatable=0;whiteSpace=wrap;html=1;arcSize=16;fontSize=15;" vertex="1" parent="JSwUa3x2rkM4eSOmI39e-48">
          <mxGeometry y="60" width="230" height="30" as="geometry" />
        </mxCell>
        <mxCell id="JSwUa3x2rkM4eSOmI39e-51" value="author (int) FK" style="text;strokeColor=none;fillColor=none;align=left;verticalAlign=middle;spacingLeft=4;spacingRight=4;overflow=hidden;points=[[0,0.5],[1,0.5]];portConstraint=eastwest;rotatable=0;whiteSpace=wrap;html=1;arcSize=16;fontSize=15;" vertex="1" parent="JSwUa3x2rkM4eSOmI39e-48">
          <mxGeometry y="90" width="230" height="30" as="geometry" />
        </mxCell>
        <mxCell id="JSwUa3x2rkM4eSOmI39e-52" value="id_object_operations (int)" style="text;strokeColor=none;fillColor=none;align=left;verticalAlign=middle;spacingLeft=4;spacingRight=4;overflow=hidden;points=[[0,0.5],[1,0.5]];portConstraint=eastwest;rotatable=0;whiteSpace=wrap;html=1;arcSize=16;fontSize=15;" vertex="1" parent="JSwUa3x2rkM4eSOmI39e-48">
          <mxGeometry y="120" width="230" height="30" as="geometry" />
        </mxCell>
        <mxCell id="JSwUa3x2rkM4eSOmI39e-92" value="record_id (int)" style="text;strokeColor=none;fillColor=none;align=left;verticalAlign=middle;spacingLeft=4;spacingRight=4;overflow=hidden;points=[[0,0.5],[1,0.5]];portConstraint=eastwest;rotatable=0;whiteSpace=wrap;html=1;arcSize=16;fontSize=15;" vertex="1" parent="JSwUa3x2rkM4eSOmI39e-48">
          <mxGeometry y="150" width="230" height="30" as="geometry" />
        </mxCell>
        <mxCell id="JSwUa3x2rkM4eSOmI39e-53" value="old_value (varchar)" style="text;strokeColor=none;fillColor=none;align=left;verticalAlign=middle;spacingLeft=4;spacingRight=4;overflow=hidden;points=[[0,0.5],[1,0.5]];portConstraint=eastwest;rotatable=0;whiteSpace=wrap;html=1;arcSize=16;fontSize=15;" vertex="1" parent="JSwUa3x2rkM4eSOmI39e-48">
          <mxGeometry y="180" width="230" height="30" as="geometry" />
        </mxCell>
        <mxCell id="JSwUa3x2rkM4eSOmI39e-93" value="new_value (varchar)" style="text;strokeColor=none;fillColor=none;align=left;verticalAlign=middle;spacingLeft=4;spacingRight=4;overflow=hidden;points=[[0,0.5],[1,0.5]];portConstraint=eastwest;rotatable=0;whiteSpace=wrap;html=1;arcSize=16;fontSize=15;" vertex="1" parent="JSwUa3x2rkM4eSOmI39e-48">
          <mxGeometry y="210" width="230" height="30" as="geometry" />
        </mxCell>
        <mxCell id="JSwUa3x2rkM4eSOmI39e-54" style="edgeStyle=orthogonalEdgeStyle;rounded=0;orthogonalLoop=1;jettySize=auto;html=1;entryX=1;entryY=0.5;entryDx=0;entryDy=0;arcSize=16;fontSize=15;" edge="1" parent="1" source="JSwUa3x2rkM4eSOmI39e-8" target="JSwUa3x2rkM4eSOmI39e-32">
          <mxGeometry relative="1" as="geometry">
            <Array as="points">
              <mxPoint x="380" y="155" />
              <mxPoint x="380" y="410" />
            </Array>
            <mxPoint x="380" y="500" as="targetPoint" />
          </mxGeometry>
        </mxCell>
        <mxCell id="JSwUa3x2rkM4eSOmI39e-55" value="1 к *" style="edgeLabel;html=1;align=center;verticalAlign=middle;resizable=0;points=[];arcSize=16;fontSize=15;" vertex="1" connectable="0" parent="JSwUa3x2rkM4eSOmI39e-54">
          <mxGeometry x="-0.1204" relative="1" as="geometry">
            <mxPoint as="offset" />
          </mxGeometry>
        </mxCell>
        <mxCell id="JSwUa3x2rkM4eSOmI39e-56" value="citys" style="swimlane;fontStyle=0;childLayout=stackLayout;horizontal=1;startSize=30;horizontalStack=0;resizeParent=1;resizeParentMax=0;resizeLast=0;collapsible=1;marginBottom=0;whiteSpace=wrap;html=1;arcSize=16;fontSize=15;" vertex="1" parent="1">
          <mxGeometry x="680" y="400" width="140" height="120" as="geometry" />
        </mxCell>
        <mxCell id="JSwUa3x2rkM4eSOmI39e-57" value="id (int) PK" style="text;strokeColor=none;fillColor=none;align=left;verticalAlign=middle;spacingLeft=4;spacingRight=4;overflow=hidden;points=[[0,0.5],[1,0.5]];portConstraint=eastwest;rotatable=0;whiteSpace=wrap;html=1;arcSize=16;fontSize=15;" vertex="1" parent="JSwUa3x2rkM4eSOmI39e-56">
          <mxGeometry y="30" width="140" height="30" as="geometry" />
        </mxCell>
        <mxCell id="JSwUa3x2rkM4eSOmI39e-58" value="name (varchar)" style="text;strokeColor=none;fillColor=none;align=left;verticalAlign=middle;spacingLeft=4;spacingRight=4;overflow=hidden;points=[[0,0.5],[1,0.5]];portConstraint=eastwest;rotatable=0;whiteSpace=wrap;html=1;arcSize=16;fontSize=15;" vertex="1" parent="JSwUa3x2rkM4eSOmI39e-56">
          <mxGeometry y="60" width="140" height="30" as="geometry" />
        </mxCell>
        <mxCell id="JSwUa3x2rkM4eSOmI39e-59" value="region_id (int)" style="text;strokeColor=none;fillColor=none;align=left;verticalAlign=middle;spacingLeft=4;spacingRight=4;overflow=hidden;points=[[0,0.5],[1,0.5]];portConstraint=eastwest;rotatable=0;whiteSpace=wrap;html=1;arcSize=16;fontSize=15;" vertex="1" parent="JSwUa3x2rkM4eSOmI39e-56">
          <mxGeometry y="90" width="140" height="30" as="geometry" />
        </mxCell>
        <mxCell id="JSwUa3x2rkM4eSOmI39e-60" style="edgeStyle=orthogonalEdgeStyle;rounded=0;orthogonalLoop=1;jettySize=auto;html=1;exitX=1;exitY=0.5;exitDx=0;exitDy=0;entryX=1;entryY=0.5;entryDx=0;entryDy=0;arcSize=16;fontSize=15;" edge="1" parent="1" source="JSwUa3x2rkM4eSOmI39e-36" target="JSwUa3x2rkM4eSOmI39e-59">
          <mxGeometry relative="1" as="geometry">
            <Array as="points">
              <mxPoint x="840" y="320" />
              <mxPoint x="840" y="505" />
            </Array>
            <mxPoint x="840" y="590" as="targetPoint" />
          </mxGeometry>
        </mxCell>
        <mxCell id="JSwUa3x2rkM4eSOmI39e-61" value="1 к *" style="edgeLabel;html=1;align=center;verticalAlign=middle;resizable=0;points=[];arcSize=16;fontSize=15;" vertex="1" connectable="0" parent="JSwUa3x2rkM4eSOmI39e-60">
          <mxGeometry x="-0.1941" y="-1" relative="1" as="geometry">
            <mxPoint as="offset" />
          </mxGeometry>
        </mxCell>
        <mxCell id="JSwUa3x2rkM4eSOmI39e-62" style="edgeStyle=orthogonalEdgeStyle;rounded=0;orthogonalLoop=1;jettySize=auto;html=1;arcSize=16;fontSize=15;" edge="1" parent="1" source="JSwUa3x2rkM4eSOmI39e-57" target="JSwUa3x2rkM4eSOmI39e-24">
          <mxGeometry relative="1" as="geometry" />
        </mxCell>
        <mxCell id="JSwUa3x2rkM4eSOmI39e-63" value="* к 1" style="edgeLabel;html=1;align=center;verticalAlign=middle;resizable=0;points=[];arcSize=16;fontSize=15;" vertex="1" connectable="0" parent="JSwUa3x2rkM4eSOmI39e-62">
          <mxGeometry x="0.0508" y="2" relative="1" as="geometry">
            <mxPoint as="offset" />
          </mxGeometry>
        </mxCell>
        <mxCell id="JSwUa3x2rkM4eSOmI39e-64" style="edgeStyle=orthogonalEdgeStyle;rounded=0;orthogonalLoop=1;jettySize=auto;html=1;entryX=0;entryY=0.5;entryDx=0;entryDy=0;exitX=0;exitY=0.5;exitDx=0;exitDy=0;arcSize=16;fontSize=15;" edge="1" parent="1" source="JSwUa3x2rkM4eSOmI39e-8" target="JSwUa3x2rkM4eSOmI39e-45">
          <mxGeometry relative="1" as="geometry">
            <Array as="points">
              <mxPoint x="150" y="145" />
              <mxPoint x="150" y="525" />
            </Array>
          </mxGeometry>
        </mxCell>
        <mxCell id="JSwUa3x2rkM4eSOmI39e-65" value="1 к *" style="edgeLabel;html=1;align=center;verticalAlign=middle;resizable=0;points=[];arcSize=16;fontSize=15;" vertex="1" connectable="0" parent="JSwUa3x2rkM4eSOmI39e-64">
          <mxGeometry x="-0.2128" y="-3" relative="1" as="geometry">
            <mxPoint as="offset" />
          </mxGeometry>
        </mxCell>
        <mxCell id="JSwUa3x2rkM4eSOmI39e-66" style="edgeStyle=orthogonalEdgeStyle;rounded=0;orthogonalLoop=1;jettySize=auto;html=1;entryX=0;entryY=0.5;entryDx=0;entryDy=0;exitX=0;exitY=0.5;exitDx=0;exitDy=0;arcSize=16;fontSize=15;" edge="1" parent="1" source="JSwUa3x2rkM4eSOmI39e-30" target="JSwUa3x2rkM4eSOmI39e-46">
          <mxGeometry relative="1" as="geometry">
            <Array as="points">
              <mxPoint x="170" y="350" />
              <mxPoint x="170" y="555" />
            </Array>
          </mxGeometry>
        </mxCell>
        <mxCell id="JSwUa3x2rkM4eSOmI39e-67" value="1 к *" style="edgeLabel;html=1;align=center;verticalAlign=middle;resizable=0;points=[];arcSize=16;fontSize=15;" vertex="1" connectable="0" parent="JSwUa3x2rkM4eSOmI39e-66">
          <mxGeometry x="-0.4171" y="-2" relative="1" as="geometry">
            <mxPoint as="offset" />
          </mxGeometry>
        </mxCell>
        <mxCell id="JSwUa3x2rkM4eSOmI39e-68" value="&lt;div style=&quot;text-align: left;&quot;&gt;&lt;span style=&quot;background-color: initial;&quot;&gt;object_operations&lt;/span&gt;&lt;/div&gt;" style="swimlane;fontStyle=0;childLayout=stackLayout;horizontal=1;startSize=30;horizontalStack=0;resizeParent=1;resizeParentMax=0;resizeLast=0;collapsible=1;marginBottom=0;whiteSpace=wrap;html=1;arcSize=16;fontSize=15;" vertex="1" parent="1">
          <mxGeometry x="1090" y="415" width="190" height="90" as="geometry" />
        </mxCell>
        <mxCell id="JSwUa3x2rkM4eSOmI39e-69" value="id (int) PK" style="text;strokeColor=none;fillColor=none;align=left;verticalAlign=middle;spacingLeft=4;spacingRight=4;overflow=hidden;points=[[0,0.5],[1,0.5]];portConstraint=eastwest;rotatable=0;whiteSpace=wrap;html=1;arcSize=16;fontSize=15;" vertex="1" parent="JSwUa3x2rkM4eSOmI39e-68">
          <mxGeometry y="30" width="190" height="30" as="geometry" />
        </mxCell>
        <mxCell id="JSwUa3x2rkM4eSOmI39e-70" value="name (varchar)" style="text;strokeColor=none;fillColor=none;align=left;verticalAlign=middle;spacingLeft=4;spacingRight=4;overflow=hidden;points=[[0,0.5],[1,0.5]];portConstraint=eastwest;rotatable=0;whiteSpace=wrap;html=1;arcSize=16;fontSize=15;" vertex="1" parent="JSwUa3x2rkM4eSOmI39e-68">
          <mxGeometry y="60" width="190" height="30" as="geometry" />
        </mxCell>
        <mxCell id="JSwUa3x2rkM4eSOmI39e-71" style="edgeStyle=orthogonalEdgeStyle;rounded=0;orthogonalLoop=1;jettySize=auto;html=1;arcSize=16;fontSize=15;exitX=0;exitY=0.5;exitDx=0;exitDy=0;" edge="1" parent="1" source="JSwUa3x2rkM4eSOmI39e-69" target="JSwUa3x2rkM4eSOmI39e-52">
          <mxGeometry relative="1" as="geometry">
            <Array as="points">
              <mxPoint x="1050" y="460" />
              <mxPoint x="1050" y="235" />
            </Array>
          </mxGeometry>
        </mxCell>
        <mxCell id="JSwUa3x2rkM4eSOmI39e-72" value="1 к *" style="edgeLabel;html=1;align=center;verticalAlign=middle;resizable=0;points=[];arcSize=16;fontSize=15;" vertex="1" connectable="0" parent="JSwUa3x2rkM4eSOmI39e-71">
          <mxGeometry x="0.0023" y="2" relative="1" as="geometry">
            <mxPoint x="2" y="-62" as="offset" />
          </mxGeometry>
        </mxCell>
        <mxCell id="JSwUa3x2rkM4eSOmI39e-73" style="edgeStyle=orthogonalEdgeStyle;rounded=0;orthogonalLoop=1;jettySize=auto;html=1;entryX=0;entryY=0.5;entryDx=0;entryDy=0;arcSize=16;fontSize=15;" edge="1" parent="1" source="JSwUa3x2rkM4eSOmI39e-16" target="JSwUa3x2rkM4eSOmI39e-42">
          <mxGeometry relative="1" as="geometry" />
        </mxCell>
        <mxCell id="JSwUa3x2rkM4eSOmI39e-74" value="1 к *" style="edgeLabel;html=1;align=center;verticalAlign=middle;resizable=0;points=[];arcSize=16;fontSize=15;" vertex="1" connectable="0" parent="JSwUa3x2rkM4eSOmI39e-73">
          <mxGeometry x="0.0685" y="1" relative="1" as="geometry">
            <mxPoint as="offset" />
          </mxGeometry>
        </mxCell>
        <mxCell id="JSwUa3x2rkM4eSOmI39e-75" value="user" style="swimlane;fontStyle=0;childLayout=stackLayout;horizontal=1;startSize=30;horizontalStack=0;resizeParent=1;resizeParentMax=0;resizeLast=0;collapsible=1;marginBottom=0;whiteSpace=wrap;html=1;arcSize=16;fontSize=15;" vertex="1" parent="1">
          <mxGeometry x="850" y="110" width="170" height="240" as="geometry" />
        </mxCell>
        <mxCell id="JSwUa3x2rkM4eSOmI39e-76" value="id (int) PK" style="text;strokeColor=none;fillColor=none;align=left;verticalAlign=middle;spacingLeft=4;spacingRight=4;overflow=hidden;points=[[0,0.5],[1,0.5]];portConstraint=eastwest;rotatable=0;whiteSpace=wrap;html=1;arcSize=16;fontSize=15;" vertex="1" parent="JSwUa3x2rkM4eSOmI39e-75">
          <mxGeometry y="30" width="170" height="30" as="geometry" />
        </mxCell>
        <mxCell id="JSwUa3x2rkM4eSOmI39e-77" value="last_name (varchar)" style="text;strokeColor=none;fillColor=none;align=left;verticalAlign=middle;spacingLeft=4;spacingRight=4;overflow=hidden;points=[[0,0.5],[1,0.5]];portConstraint=eastwest;rotatable=0;whiteSpace=wrap;html=1;arcSize=16;fontSize=15;" vertex="1" parent="JSwUa3x2rkM4eSOmI39e-75">
          <mxGeometry y="60" width="170" height="30" as="geometry" />
        </mxCell>
        <mxCell id="JSwUa3x2rkM4eSOmI39e-78" value="first_name (varchar)" style="text;strokeColor=none;fillColor=none;align=left;verticalAlign=middle;spacingLeft=4;spacingRight=4;overflow=hidden;points=[[0,0.5],[1,0.5]];portConstraint=eastwest;rotatable=0;whiteSpace=wrap;html=1;arcSize=16;fontSize=15;" vertex="1" parent="JSwUa3x2rkM4eSOmI39e-75">
          <mxGeometry y="90" width="170" height="30" as="geometry" />
        </mxCell>
        <mxCell id="JSwUa3x2rkM4eSOmI39e-79" value="middle_name (varchar)" style="text;strokeColor=none;fillColor=none;align=left;verticalAlign=middle;spacingLeft=4;spacingRight=4;overflow=hidden;points=[[0,0.5],[1,0.5]];portConstraint=eastwest;rotatable=0;whiteSpace=wrap;html=1;arcSize=16;fontSize=15;" vertex="1" parent="JSwUa3x2rkM4eSOmI39e-75">
          <mxGeometry y="120" width="170" height="30" as="geometry" />
        </mxCell>
        <mxCell id="JSwUa3x2rkM4eSOmI39e-80" value="login (varchar)" style="text;strokeColor=none;fillColor=none;align=left;verticalAlign=middle;spacingLeft=4;spacingRight=4;overflow=hidden;points=[[0,0.5],[1,0.5]];portConstraint=eastwest;rotatable=0;whiteSpace=wrap;html=1;arcSize=16;fontSize=15;" vertex="1" parent="JSwUa3x2rkM4eSOmI39e-75">
          <mxGeometry y="150" width="170" height="30" as="geometry" />
        </mxCell>
        <mxCell id="JSwUa3x2rkM4eSOmI39e-81" value="password&lt;span style=&quot;background-color: initial;&quot;&gt;&amp;nbsp;(varchar)&lt;/span&gt;" style="text;strokeColor=none;fillColor=none;align=left;verticalAlign=middle;spacingLeft=4;spacingRight=4;overflow=hidden;points=[[0,0.5],[1,0.5]];portConstraint=eastwest;rotatable=0;whiteSpace=wrap;html=1;arcSize=16;fontSize=15;" vertex="1" parent="JSwUa3x2rkM4eSOmI39e-75">
          <mxGeometry y="180" width="170" height="30" as="geometry" />
        </mxCell>
        <mxCell id="JSwUa3x2rkM4eSOmI39e-82" value="role_id (int) FK" style="text;strokeColor=none;fillColor=none;align=left;verticalAlign=middle;spacingLeft=4;spacingRight=4;overflow=hidden;points=[[0,0.5],[1,0.5]];portConstraint=eastwest;rotatable=0;whiteSpace=wrap;html=1;arcSize=16;fontSize=15;" vertex="1" parent="JSwUa3x2rkM4eSOmI39e-75">
          <mxGeometry y="210" width="170" height="30" as="geometry" />
        </mxCell>
        <mxCell id="JSwUa3x2rkM4eSOmI39e-83" style="edgeStyle=orthogonalEdgeStyle;rounded=0;orthogonalLoop=1;jettySize=auto;html=1;exitX=1;exitY=0.5;exitDx=0;exitDy=0;arcSize=16;fontSize=15;entryX=1;entryY=0.5;entryDx=0;entryDy=0;" edge="1" parent="1" source="JSwUa3x2rkM4eSOmI39e-86" target="JSwUa3x2rkM4eSOmI39e-82">
          <mxGeometry relative="1" as="geometry">
            <Array as="points">
              <mxPoint x="1040" y="470" />
              <mxPoint x="1040" y="335" />
            </Array>
            <mxPoint x="1318.94" y="90" as="sourcePoint" />
            <mxPoint x="1030" y="330" as="targetPoint" />
          </mxGeometry>
        </mxCell>
        <mxCell id="JSwUa3x2rkM4eSOmI39e-84" value="1 к *" style="edgeLabel;html=1;align=center;verticalAlign=middle;resizable=0;points=[];arcSize=16;fontSize=15;" vertex="1" connectable="0" parent="JSwUa3x2rkM4eSOmI39e-83">
          <mxGeometry x="-0.0861" y="-1" relative="1" as="geometry">
            <mxPoint x="-21" y="-5" as="offset" />
          </mxGeometry>
        </mxCell>
        <mxCell id="JSwUa3x2rkM4eSOmI39e-85" value="role" style="swimlane;fontStyle=0;childLayout=stackLayout;horizontal=1;startSize=30;horizontalStack=0;resizeParent=1;resizeParentMax=0;resizeLast=0;collapsible=1;marginBottom=0;whiteSpace=wrap;html=1;arcSize=16;fontSize=15;" vertex="1" parent="1">
          <mxGeometry x="870" y="425" width="140" height="90" as="geometry" />
        </mxCell>
        <mxCell id="JSwUa3x2rkM4eSOmI39e-86" value="id (int) PK" style="text;strokeColor=none;fillColor=none;align=left;verticalAlign=middle;spacingLeft=4;spacingRight=4;overflow=hidden;points=[[0,0.5],[1,0.5]];portConstraint=eastwest;rotatable=0;whiteSpace=wrap;html=1;arcSize=16;fontSize=15;" vertex="1" parent="JSwUa3x2rkM4eSOmI39e-85">
          <mxGeometry y="30" width="140" height="30" as="geometry" />
        </mxCell>
        <mxCell id="JSwUa3x2rkM4eSOmI39e-87" value="name (varchar)" style="text;strokeColor=none;fillColor=none;align=left;verticalAlign=middle;spacingLeft=4;spacingRight=4;overflow=hidden;points=[[0,0.5],[1,0.5]];portConstraint=eastwest;rotatable=0;whiteSpace=wrap;html=1;arcSize=16;fontSize=15;" vertex="1" parent="JSwUa3x2rkM4eSOmI39e-85">
          <mxGeometry y="60" width="140" height="30" as="geometry" />
        </mxCell>
        <mxCell id="JSwUa3x2rkM4eSOmI39e-88" style="edgeStyle=orthogonalEdgeStyle;rounded=0;orthogonalLoop=1;jettySize=auto;html=1;entryX=0;entryY=0.5;entryDx=0;entryDy=0;exitX=1;exitY=0.5;exitDx=0;exitDy=0;arcSize=16;fontSize=15;" edge="1" parent="1" source="JSwUa3x2rkM4eSOmI39e-76" target="JSwUa3x2rkM4eSOmI39e-51">
          <mxGeometry relative="1" as="geometry">
            <Array as="points">
              <mxPoint x="1040" y="155" />
              <mxPoint x="1040" y="215" />
            </Array>
          </mxGeometry>
        </mxCell>
        <mxCell id="JSwUa3x2rkM4eSOmI39e-89" value="1 к *" style="edgeLabel;html=1;align=center;verticalAlign=middle;resizable=0;points=[];arcSize=16;fontSize=15;" vertex="1" connectable="0" parent="JSwUa3x2rkM4eSOmI39e-88">
          <mxGeometry x="-0.1361" y="-1" relative="1" as="geometry">
            <mxPoint as="offset" />
          </mxGeometry>
        </mxCell>
        <mxCell id="JSwUa3x2rkM4eSOmI39e-90" style="edgeStyle=orthogonalEdgeStyle;rounded=0;orthogonalLoop=1;jettySize=auto;html=1;endArrow=none;endFill=0;entryX=1;entryY=0.5;entryDx=0;entryDy=0;arcSize=16;fontSize=15;" edge="1" parent="1" source="JSwUa3x2rkM4eSOmI39e-16" target="JSwUa3x2rkM4eSOmI39e-44">
          <mxGeometry relative="1" as="geometry">
            <Array as="points">
              <mxPoint x="394" y="155" />
              <mxPoint x="394" y="515" />
              <mxPoint x="370" y="515" />
            </Array>
          </mxGeometry>
        </mxCell>
        <mxCell id="JSwUa3x2rkM4eSOmI39e-91" value="1 к 1" style="edgeLabel;html=1;align=center;verticalAlign=middle;resizable=0;points=[];arcSize=16;fontSize=15;" vertex="1" connectable="0" parent="JSwUa3x2rkM4eSOmI39e-90">
          <mxGeometry x="0.2426" y="-2" relative="1" as="geometry">
            <mxPoint as="offset" />
          </mxGeometry>
        </mxCell>
      </root>
    </mxGraphModel>
  </diagram>
</mxfile>
